<?xml version="1.0" standalone="no"?>
<!DOCTYPE svg PUBLIC "-//W3C//DTD SVG 20010904//EN"
 "http://www.w3.org/TR/2001/REC-SVG-20010904/DTD/svg10.dtd">
<svg version="1.0" xmlns="http://www.w3.org/2000/svg"
 width="600.000000pt" height="300.000000pt" viewBox="0 0 600.000000 300.000000"
 preserveAspectRatio="xMidYMid meet">
<metadata>
Created by potrace 1.16, written by Peter Selinger 2001-2019
</metadata>
<g transform="translate(0.000000,300.000000) scale(0.100000,-0.100000)"
fill="#000000" stroke="none">
<path d="M2870 2994 c-198 -24 -390 -79 -537 -152 -291 -147 -552 -413 -687
-703 -100 -216 -140 -395 -140 -639 0 -244 40 -423 140 -639 139 -298 413
-574 708 -712 219 -102 403 -143 646 -143 243 0 427 41 646 143 295 138 569
414 708 712 100 216 140 395 140 639 0 244 -40 423 -140 639 -135 290 -396
556 -687 703 -103 51 -288 113 -402 133 -89 15 -328 27 -395 19z m347 -204
c166 -27 368 -109 519 -210 101 -68 276 -243 344 -344 103 -155 183 -353 212
-530 15 -91 15 -321 0 -412 -29 -177 -109 -375 -212 -530 -67 -100 -242 -276
-340 -341 -151 -101 -307 -167 -483 -204 -144 -31 -370 -31 -514 0 -264 55
-472 168 -664 360 -120 120 -190 218 -260 365 -88 185 -123 344 -123 556 0
212 35 371 123 556 70 147 140 245 260 365 181 181 384 295 626 353 150 35
354 42 512 16z"/>
<path d="M2500 2329 c-38 -15 -99 -78 -125 -130 -70 -137 -72 -347 -5 -479 44
-87 125 -149 193 -150 101 -1 204 112 237 261 18 83 8 249 -19 319 -59 148
-173 221 -281 179z"/>
<path d="M3370 2329 c-71 -29 -147 -145 -171 -258 -17 -81 -6 -233 21 -304
129 -339 460 -204 460 189 0 153 -58 295 -145 353 -41 27 -124 38 -165 20z"/>
<path d="M2256 1174 c-33 -33 -35 -85 -5 -134 119 -196 346 -352 576 -396 96
-18 260 -18 357 1 215 41 437 186 554 363 47 71 48 113 4 153 -62 55 -94 41
-196 -87 -247 -307 -723 -341 -1011 -72 -40 37 -90 93 -110 123 -41 62 -59 75
-108 75 -24 0 -42 -8 -61 -26z"/>
</g>
</svg>
